<svg width="1000" height="646" viewBox="0 0 1000 646" fill="none" xmlns="http://www.w3.org/2000/svg">
<path d="M907.27 2.59999C903.97 3.99999 898.37 6.19999 894.77 7.59999C874.27 15.6 862.97 20.3 861.07 21.6C859.47 22.6 858.77 24 858.77 26C858.77 29.3 859.17 29.2 848.27 29.4C843.17 29.5 840.47 30.4 830.77 35.1C824.47 38.1 817.57 42.1 815.57 43.9C813.07 46.1 808.87 48 802.07 50.2C796.67 51.8 785.67 56.3 777.57 60C769.47 63.7 761.37 67 759.47 67.4C757.57 67.7 753.17 69.8 749.57 72C745.97 74.1 741.77 76.2 740.17 76.6C738.67 77 734.67 79.1 731.37 81.2C728.07 83.3 722.27 85.9 718.37 87.1C714.47 88.2 708.87 90.5 706.07 92.1C699.97 95.5 697.17 95.9 698.27 93.2C698.67 92.3 699.37 84.3 699.77 75.6L700.67 59.6L697.57 53.8C693.57 46.3 688.77 42 684.37 42C680.57 42 678.57 43.9 676.77 49.3C675.47 53.5 670.27 60 668.27 60C667.57 60 665.87 59.1 664.47 58C661.07 55.3 659.37 55.5 656.37 59C654.57 61.2 653.87 63.1 653.97 65.7C654.17 70.1 653.57 70.5 636.87 79.5C629.97 83.2 621.67 88.1 618.57 90.3C613.47 93.8 612.37 94.2 608.97 93.6C605.77 93.1 603.77 93.7 597.97 96.5C593.87 98.6 589.97 101.3 588.67 103.1C587.07 105.4 585.97 106 584.37 105.6C583.17 105.3 580.97 105.7 579.57 106.4C575.97 108.3 575.37 107.3 577.87 103.9C578.97 102.3 579.67 101 579.37 101C579.07 101 574.17 102.6 568.57 104.5C555.27 109.1 551.27 108.6 563.77 103.9C568.97 102 573.17 99.9 573.07 99.3C572.97 98.6 575.87 97.2 579.57 95.9C587.57 93.3 593.47 90.2 594.27 88.3C594.97 86.4 591.97 87.1 576.27 92.2C565.17 95.8 563.67 96.1 556.67 95.6C549.07 95 548.97 95 524.27 103.6C505.07 110.3 498.77 112.1 496.17 111.7C493.87 111.3 490.67 111.9 486.37 113.5C482.97 114.8 479.57 115.5 478.87 115.1C476.87 113.8 479.37 112.5 492.77 107.6C509.17 101.6 514.67 98.8 519.17 94C521.67 91.3 524.07 89.9 526.57 89.5C534.57 88.2 539.47 86.8 544.07 84.4C546.67 83.1 551.17 81.5 554.07 80.9C560.47 79.5 562.77 78.4 562.77 76.5C562.77 74.1 561.27 74 555.77 76.1C552.87 77.2 547.57 78.8 543.97 79.6C540.37 80.4 536.17 81.8 534.67 82.6C533.07 83.4 528.97 84.7 525.57 85.4C522.07 86.2 517.27 87.6 514.77 88.4C509.37 90.3 474.37 100 472.97 100C472.47 100 471.77 97.5 471.57 94.5C470.87 86.1 464.57 80.7 461.77 86C461.07 87.3 459.67 88 457.67 88C455.57 88 453.97 88.8 452.67 90.4C451.47 91.9 445.77 94.7 436.57 98.3C417.47 105.7 412.87 107 402.27 107.7C394.57 108.2 392.27 108.9 385.57 112.2C379.97 114.9 376.47 116 373.27 116C370.77 116 367.37 116.7 365.67 117.5C364.07 118.4 359.67 119.4 355.87 119.9C352.07 120.4 347.67 121.5 346.07 122.4C339.67 126.1 322.27 131.2 313.97 131.7L305.67 132.3L306.27 137.1C306.87 141.3 306.67 141.9 304.87 142.5C302.87 143.1 301.07 146.6 302.17 147.7C302.47 148.1 305.47 147.6 308.77 146.7C315.37 144.8 322.37 144.5 323.27 145.9C324.17 147.5 320.87 148.6 310.77 150.4C305.57 151.3 298.17 152.7 294.27 153.5C290.47 154.3 284.77 155.3 281.77 155.6C274.87 156.4 264.07 160.7 262.77 163C261.47 165.4 262.47 166 265.77 164.8C267.37 164.3 269.87 164 271.47 164.2C273.77 164.5 273.27 164.8 268.77 165.9C259.37 168.2 258.37 170.2 265.77 172C270.37 173.1 271.57 172.9 281.47 170C287.87 168.1 293.37 167.1 294.97 167.4C296.47 167.7 301.17 167.1 305.37 166C314.67 163.6 315.77 163.6 315.77 165.5C315.77 167.4 313.17 168.4 300.07 171.5C294.37 172.9 288.77 174.5 287.57 175.1C285.17 176.4 270.57 180.4 260.47 182.5C256.57 183.3 250.17 185.3 246.37 186.9C242.47 188.5 233.67 191.3 226.77 193C213.07 196.4 209.97 198.2 213.17 200.6C216.37 202.9 221.87 202.2 233.27 197.9C244.17 193.8 244.27 193.8 257.77 193.8C265.17 193.8 275.27 193.2 280.27 192.3C285.47 191.4 291.47 191.1 294.57 191.4C299.17 192 301.67 191.5 312.27 187.9C319.37 185.4 325.27 184 326.27 184.4C329.07 185.4 326.37 187.7 320.97 188.9C318.37 189.5 309.97 191.9 302.27 194.3C290.37 198 288.27 199 287.97 200.8C287.67 202.5 287.27 202.7 285.97 201.9C283.67 200.6 261.17 205.1 258.97 207.4C257.47 208.9 257.57 209 260.27 209C261.97 209 264.77 208.6 266.57 208C268.47 207.5 271.37 207.4 272.97 207.7C275.87 208.3 275.97 208.4 274.17 209.7C272.47 210.9 273.57 211 282.47 210.7C288.17 210.4 292.77 210.6 292.77 211C292.77 211.7 288.67 213.9 282.27 216.7C278.87 218.1 278.57 218.4 280.47 218.7C281.67 218.9 283.57 218.6 284.67 218.1C287.27 216.7 293.97 216.6 291.77 218C290.97 218.5 289.37 219 288.27 219C287.27 219 285.47 220.2 284.27 221.6C282.47 223.8 280.17 224.6 265.47 227.5C245.47 231.5 242.07 232.5 240.67 235.1C239.07 238.1 242.17 242.4 245.07 241.5C246.27 241.1 248.47 240.6 249.87 240.3C252.27 239.9 252.47 240.1 252.07 242.2C251.37 245.7 254.17 248.4 256.77 246.7C258.47 245.7 259.07 245.9 260.67 247.5C262.37 249.2 262.67 251.1 262.97 260.7C263.07 267 262.77 272.4 262.27 272.9C261.67 273.5 259.07 274 256.27 274.2L251.27 274.5L251.57 277.9C251.87 280.7 251.37 281.7 248.37 284.2C246.37 285.8 244.77 288.1 244.77 289.2C244.77 291 245.17 291.2 248.57 290.6C250.57 290.3 254.77 289.6 257.87 289.1C264.47 288.1 271.77 284.5 272.47 282.1C272.97 280.3 278.97 278.7 289.67 277.5C293.87 277 295.37 277.3 296.87 278.5C298.47 280.1 299.17 280.1 305.07 278.6C308.57 277.7 314.77 277 318.87 277C323.97 277 327.07 276.5 328.37 275.5C331.07 273.5 333.97 273.6 333.57 275.7C332.97 279 325.97 281.4 315.57 282C306.87 282.4 305.67 282.8 303.07 285.2C301.37 286.8 297.77 288.5 293.87 289.5C290.37 290.4 282.17 293.8 275.87 297.1C265.27 302.5 263.37 303.1 254.77 304.1C249.57 304.7 243.07 306 240.27 307C237.57 308 230.77 310.5 225.27 312.5C212.37 317.2 192.37 323 188.97 323C183.57 323 178.47 325.2 175.17 328.8C172.47 331.8 169.77 333.2 161.57 336C152.47 339.1 151.07 339.9 149.27 343C148.17 344.9 144.67 349 141.57 352.1C138.37 355.2 135.77 358.1 135.77 358.5C135.77 359.6 141.27 358.5 162.27 353.1C172.77 350.4 181.37 348.3 181.57 348.5C181.67 348.6 180.87 349.9 179.77 351.3C178.47 352.9 176.27 354.2 173.97 354.5C168.37 355.5 163.77 356.9 158.27 359.5C155.57 360.8 151.07 362.6 148.27 363.5C144.97 364.7 141.47 367.1 137.87 370.6C133.17 375.3 132.67 376.2 133.87 377.6C136.17 380.3 142.57 378.7 157.37 371.6C171.87 364.7 173.17 364.3 174.27 366.1C175.27 367.6 170.77 372 168.27 372C167.17 372 164.47 372.9 162.27 374C160.17 375.1 155.97 376.7 153.07 377.5C147.57 379.1 146.37 381.2 150.67 381.8C154.27 382.4 178.77 373.4 201.27 363.4C212.87 358.2 222.77 354 223.37 354C223.87 354 224.87 355.4 225.47 357C226.47 359.7 226.97 360 229.47 359.4C233.87 358.3 241.77 354.1 247.37 349.9C252.87 345.7 253.87 345.4 256.67 347.2C258.17 348.1 259.17 347.9 261.87 346.3C266.67 343.3 277.87 342.2 279.77 344.5C282.87 348.2 280.17 350.4 260.07 360.5C244.67 368.2 238.97 370.5 231.57 372.1C216.67 375.3 210.77 378.6 208.07 384.7C206.87 387.7 206.37 388 202.37 388C198.87 388 196.97 388.7 193.37 391.5C190.37 393.8 187.67 395 185.67 395C183.97 395 176.17 397.9 168.47 401.4C160.67 404.9 147.07 410.3 138.27 413.4C129.47 416.5 119.77 420 116.77 421.1C113.77 422.2 104.97 427.1 97.2697 431.9C81.0697 442.1 74.6697 445.5 61.0697 450.9C55.6697 453 46.9697 456.7 41.7697 459C28.8697 464.7 27.5697 465.2 28.2697 463.9C30.2697 460.8 25.9697 455.8 23.2697 458C22.5697 458.6 21.2697 458.8 20.3697 458.4C18.3697 457.6 15.7697 459.7 15.7697 462.1C15.7697 464.1 18.5697 466 20.4697 465.3C21.1697 465.1 22.3697 465.3 23.2697 465.8C24.5697 466.5 23.9697 466.9 20.5697 468.1C14.4697 470.1 1.66973 477.2 0.369733 479.2C-0.530267 480.6 0.069733 481.8 3.76973 485.6C6.26973 488.1 9.76973 490.9 11.5697 491.7C13.3697 492.4 16.7697 494.4 18.9697 496C23.9697 499.7 25.7697 499.8 25.7697 496.5C25.7697 494.9 26.3697 494 27.2697 494C29.5697 494 29.0697 491.3 26.5697 490.7C25.3697 490.4 23.4697 490.5 22.3697 491.1C17.2697 493.4 24.4697 489.3 42.7697 479.3C80.9697 458.5 89.8697 455 104.27 455C113.97 455 122.47 452.4 134.97 445.7C143.47 441.1 168.17 432 172.07 432C174.27 432 174.27 432.1 171.87 433.9C170.57 434.9 162.47 438.6 153.87 442C130.67 451.4 126.67 453.6 129.57 455.4C130.07 455.7 137.57 454 146.37 451.6C155.07 449.2 165.87 446.5 170.27 445.5C179.57 443.5 188.87 441 200.67 437.5C210.67 434.5 214.47 434.4 217.77 437C222.27 440.5 226.47 439.6 245.07 431.3C256.37 426.3 264.67 421.9 269.27 418.4C273.47 415.3 280.97 411.2 288.27 408.1L300.27 402.9L302.97 406.2C304.47 408 305.77 410.1 305.77 410.8C305.77 412.2 301.37 414.4 280.77 422.7C260.07 431.2 204.37 459.5 198.97 464.3C197.57 465.7 196.77 467.5 196.77 469.7C196.77 472.5 197.17 473 199.07 473C200.27 473 210.67 468.7 222.07 463.5C233.57 458.3 243.37 454 243.87 454C246.27 454 244.17 456.2 239.07 459.2C226.87 466.3 201.77 476.5 191.97 478.3L188.67 479L190.67 476.4C192.87 473.6 193.47 467.6 191.77 466.5C191.27 466.2 189.87 466.4 188.77 467C187.17 467.9 186.97 468.5 187.77 470C188.27 471 188.77 472.1 188.77 472.3C188.77 472.5 185.77 473 182.17 473.3C177.57 473.8 174.07 474.8 170.37 476.9C164.57 480.3 143.77 488.4 130.47 492.5C121.57 495.3 117.77 498.1 117.77 502C117.77 505.8 122.77 505.2 137.27 499.7C147.77 495.7 165.97 491.6 169.47 492.5C173.67 493.5 171.67 496 163.97 499.3C156.77 502.3 154.27 504.6 155.27 507.2C155.67 508.3 158.27 507.8 167.07 504.8C178.17 501.1 183.77 500.1 183.77 502C183.77 502.5 182.27 503.7 180.57 504.7C177.47 506.3 177.47 506.5 179.57 506.8C180.77 507 188.17 505 195.87 502.5C210.17 497.7 214.67 497.2 211.37 500.9C210.37 502 206.37 504.5 202.47 506.6C193.57 511.2 194.17 510.6 196.07 512.8C197.07 513.8 197.77 515 197.77 515.4C197.77 516.5 191.07 519 188.07 519C186.57 519 178.97 522.1 171.27 525.9C163.57 529.7 148.97 535.9 138.77 539.5C97.9697 554.3 88.3697 558.7 93.1697 560.6C95.4697 561.5 143.07 550 164.07 543.4C181.27 538 187.67 537.1 188.57 539.7C189.27 542 169.87 549.8 102.27 574.1C74.4697 584.2 72.1697 585.3 69.8697 589.9C68.7697 591.9 67.0697 594.4 65.8697 595.4C63.0697 597.9 63.2697 600.6 66.3697 604.3C68.6697 607 68.9697 608.1 68.4697 612.1C67.4697 620.5 71.4697 619.7 82.5697 609.5L89.8697 602.8L94.2697 604.5C96.7697 605.4 98.7697 606.5 98.7697 607C98.7697 607.4 97.1697 609.7 95.2697 612C91.0697 617.1 90.9697 618.4 94.5697 620.7C96.0697 621.6 97.4697 622.5 97.6697 622.6C97.8697 622.8 96.9697 624.3 95.6697 626.1C93.5697 629.1 93.5697 629.4 95.1697 630.6C98.1697 632.8 103.67 630.5 110.77 624.1C114.57 620.6 127.97 612.6 131.47 611.8C133.97 611.1 135.17 612.3 136.17 616.2C136.67 618.4 137.77 619.1 143.67 620.9C147.47 622.1 151.27 623 152.17 623C154.87 623 163.27 618.3 168.27 614C174.97 608.2 180.77 607.1 177.27 612.3C175.87 614.6 175.87 614.8 177.27 615.4C182.47 617.3 192.07 614.3 200.07 608.2C208.17 602 211.07 600.9 233.27 595C240.47 593.1 252.07 588.9 266.47 583.2L271.67 581.1L274.67 583.6C276.37 585 279.27 586.4 281.17 586.7C287.77 587.7 287.57 589.5 280.57 592.6C266.47 598.8 244.77 610.4 236.77 616C232.07 619.3 223.37 624.4 217.27 627.3C207.57 632 201.67 636 204.47 636C205.87 636 217.77 631.8 228.67 627.5C237.37 624.1 238.67 623.9 244.87 624.5C250.77 625.1 252.07 624.9 256.37 622.6C259.07 621.2 262.67 619.2 264.27 618.1C265.97 616.9 268.17 616 269.27 616C270.37 616 272.37 615.3 273.57 614.4C274.77 613.6 280.37 610.8 285.97 608.4L296.17 603.9L299.27 607.6C301.77 610.5 303.37 611.4 307.27 612.1C314.97 613.3 324.47 613.1 330.67 611.6C333.77 610.8 341.47 609.9 347.77 609.6C354.07 609.2 361.27 608.5 363.77 607.9C367.77 607.1 374.57 606.4 401.07 604.3C408.17 603.8 408.77 603.9 408.77 605.6C408.77 606.9 406.57 608.7 401.87 611.3C393.77 615.7 385.07 617.1 378.77 615C375.47 613.9 372.77 614 361.67 615.4C345.67 617.6 342.77 618.5 342.77 621.4C342.77 624.5 351.17 639 355.27 642.7C357.77 645.1 359.67 646 362.07 646C368.87 646 390.57 642.9 396.77 641C400.37 640 406.17 638.9 409.77 638.6C421.77 637.6 428.67 636.2 432.17 634.1C435.57 632 435.87 632 440.17 633.4C444.47 634.9 445.27 634.8 455.47 632.4C464.47 630.2 467.37 629.9 472.77 630.6C486.37 632.2 518.07 630.7 526.57 627.9C529.67 626.9 529.87 626.5 529.37 623.5C528.27 617.9 532.77 618.2 540.97 624.3C543.67 626.3 543.87 626.3 553.07 624.7C558.17 623.8 563.77 623 565.47 623C568.77 623 573.77 619.7 573.77 617.5C573.77 615.3 576.67 613 579.47 613C580.87 613 584.47 614.2 587.37 615.6L592.67 618.2L596.47 616.2C604.67 611.8 606.77 611.1 613.37 610.5C617.17 610.1 623.17 609 626.77 608C630.37 607 635.17 605.7 637.57 605.1C640.27 604.3 642.37 603 643.47 601.2C645.87 597.5 646.17 597.4 655.27 594.4C659.67 593 665.27 590.5 667.77 588.9C671.67 586.2 672.87 585.9 677.07 586.4C684.27 587.2 691.07 585.5 702.77 580.1C708.57 577.4 717.27 573.5 722.07 571.6C726.97 569.6 734.77 566 739.57 563.6C749.27 558.7 761.67 554.5 769.27 553.5C776.47 552.6 782.77 550.1 782.97 548.2C783.57 541.1 780.57 530.8 777.17 528.1C774.07 525.7 768.77 525.4 759.17 527.2C753.17 528.3 752.47 528.2 747.77 526C745.07 524.7 742.77 523.4 742.77 523C742.77 521.5 745.37 520 747.97 520C750.17 520 751.07 519.3 752.17 516.5C753.77 512.7 754.97 512.4 760.67 514.1C763.67 515 765.77 514.8 773.27 512.6C782.77 510 802.57 501.1 804.67 498.6C805.97 497 806.77 457.7 805.47 456.4C805.07 456 803.57 456.2 802.17 456.9C800.07 457.8 799.67 458.5 800.27 460.3C800.67 461.5 801.27 464.6 801.47 467.2C801.97 471.8 801.97 471.9 798.27 472.9C796.27 473.4 793.77 475 792.67 476.4C791.57 477.8 787.87 480.4 784.47 482.1C768.27 490.5 768.47 490.4 767.27 493.9C765.67 498.6 764.17 498.8 762.37 494.6C761.57 492.6 760.17 491 759.27 491C758.47 491 754.57 492.6 750.77 494.5C746.07 496.9 743.37 498.9 742.27 501C740.47 504.5 737.47 505.5 732.67 504.3C726.97 502.8 728.07 500.9 737.47 496C743.57 492.9 746.37 490.9 746.57 489.5C747.37 484.2 748.17 482.9 754.47 477.8C762.97 470.9 765.97 469.4 774.77 467.5C783.07 465.7 788.77 463.5 788.77 462C788.77 461.4 787.57 459.4 786.17 457.7C783.57 454.4 783.57 454.4 777.77 455.4C770.67 456.6 766.77 455.2 763.07 450.3C760.17 446.5 759.67 441.7 761.97 439.4C762.77 438.5 767.97 436.6 773.37 435C781.17 432.8 786.17 432.1 797.27 431.6C815.97 430.8 818.17 430.2 823.67 424.2C827.37 420.2 831.57 417.6 845.27 410.7C865.17 400.5 872.07 396.4 871.47 394.7C871.27 394 869.77 393.6 868.17 393.8C863.37 394.3 859.57 394.2 854.07 393.5C849.77 392.9 847.87 393.2 843.57 395C840.77 396.2 836.37 397.3 833.87 397.4C829.27 397.5 829.27 397.5 827.87 393.1C826.67 389.2 826.67 388.3 827.87 386.1C830.07 382.3 832.57 382.2 833.87 385.9C835.27 389.9 837.67 389.9 842.17 386C845.17 383.3 846.57 382.9 853.87 382.3C862.07 381.7 862.07 381.7 864.37 384.6C866.17 386.8 866.97 387.2 867.87 386.3C868.87 385.3 868.77 384.6 867.47 383.2C863.67 379 861.77 372.3 861.47 362.3L861.27 352.5L866.27 350.9C869.27 350 871.37 348.7 871.57 347.7C871.97 345.6 866.27 337.3 863.97 336.6C863.07 336.4 860.77 335.9 859.07 335.5C857.17 335.1 854.77 333.6 853.47 331.8L851.07 328.8L847.17 330.6C845.07 331.6 842.57 332.7 841.67 333.1C839.47 334.1 837.37 332.6 838.37 330.7C840.07 327.8 849.27 320.8 856.07 317.4C862.37 314.2 862.77 313.8 862.77 310.6C862.77 306.4 868.77 298.4 874.47 294.9C876.57 293.7 882.17 289.7 886.97 286.2C891.77 282.7 900.07 277.2 905.37 274.1C913.47 269.3 915.27 267.7 916.17 264.9C917.07 262.1 919.57 260 930.27 252.7C937.47 247.9 944.37 242.8 945.77 241.5C948.07 239.2 948.07 238.9 946.57 237.4C945.07 235.8 944.67 235.9 941.27 237.9C937.47 240.1 934.27 240.6 933.27 239.1C932.97 238.6 933.27 237.8 933.87 237.5C934.47 237.1 934.67 235.3 934.37 233.1C933.87 229.9 934.27 228.9 938.77 223.5C944.27 216.9 944.97 213.9 941.67 210.4L939.57 208.1L944.47 204.6C950.67 200.2 956.17 193.4 955.37 191.3C954.37 188.9 948.17 190.2 934.77 195.5C923.57 199.9 918.47 200.9 917.37 199.1C916.57 197.9 918.67 196.4 922.27 195.6C927.27 194.4 965.57 175 966.27 173.3C967.57 169.7 964.67 170 951.47 174.9C934.97 181.1 929.17 182.5 925.37 181C923.87 180.5 922.77 179.7 922.97 179.2C923.17 178.8 923.97 177.1 924.67 175.5C927.77 168.6 928.87 167.3 936.37 162.8C945.37 157.4 947.07 155.6 950.47 148.3C952.47 144.1 952.77 142.2 952.17 138.5L951.57 134L964.87 127.7C972.27 124.2 983.07 119.2 989.07 116.5C994.97 113.9 999.77 111.3 999.77 110.8C999.77 109.2 993.27 101.1 991.97 101C991.17 101 986.87 103 982.37 105.5C977.77 108 973.47 110 972.67 110C971.87 110 965.77 112.8 959.07 116.2C952.37 119.6 946.57 122.1 946.07 121.6C944.97 120.5 950.47 116 967.47 103.8C975.37 98.3 981.97 92.8 982.37 91.7C983.57 87.9 981.17 87.6 975.37 91C972.27 92.7 969.77 93.8 969.77 93.4C969.77 92.9 971.47 90.9 973.47 88.8C975.47 86.7 976.87 84.7 976.47 84.3C976.07 83.9 973.67 84.6 971.17 85.9C968.57 87.1 966.37 87.9 966.07 87.7C965.87 87.4 968.17 84.7 971.27 81.5C974.37 78.4 976.67 75.3 976.47 74.7C975.27 70.9 972.97 71.8 941.47 87.9C912.57 102.6 904.77 105.8 904.77 103C904.77 102.5 907.07 100.9 909.77 99.5C912.57 98.1 916.57 95.4 918.57 93.5C921.07 91.3 926.17 88.7 933.67 85.9C939.97 83.6 947.87 79.7 951.27 77.4C954.77 75 960.57 71.6 964.17 69.8C967.77 68 970.67 66.1 970.47 65.5C970.17 64.9 967.57 64.6 964.17 64.8C959.07 65.1 956.27 66.2 943.87 72.7C935.97 76.9 929.77 79.8 930.17 79.2C931.07 77.7 947.97 68.2 959.07 62.9C966.67 59.3 967.87 58.4 967.37 56.6C967.07 55.4 966.57 52.6 966.17 50.2C965.77 47.9 965.07 45.7 964.57 45.4C964.17 45.1 956.97 48.1 948.67 52.1C934.77 58.8 933.27 59.3 927.97 59C924.87 58.8 918.47 58.8 913.77 58.8L905.27 59L908.57 56.2C911.77 53.6 912.57 52 910.97 52C910.47 52 897.77 58.9 882.67 67.3C853.87 83.3 763.47 129 760.47 129C759.47 129 758.27 127.9 757.77 126.5C757.17 124.9 756.07 124 754.67 124C753.57 124 744.67 128.1 734.97 133C716.27 142.6 710.77 144.5 710.77 141.6C710.77 138.8 713.37 134.6 716.77 132.1C722.87 127.7 744.17 115.7 766.77 104C796.17 88.8 807.37 82.2 805.87 80.7C804.77 79.6 797.37 82.8 788.17 88.5C784.67 90.7 783.87 90.8 782.87 89.6C781.87 88.4 782.47 87.5 786.27 84.6C791.27 80.8 798.47 77.8 808.27 75.3C816.27 73.3 818.77 71.6 818.77 68.2C818.77 64.9 820.07 63.2 824.57 60.1C826.37 58.8 829.57 55.2 831.77 51.9C834.17 48.5 836.77 45.8 838.07 45.5C852.87 42.3 859.97 40.2 871.07 35.8C882.67 31.2 884.87 30 890.07 24.8C894.07 21 897.57 18.6 900.77 17.5C903.37 16.6 906.97 14.8 908.87 13.4C914.37 9.19999 919.97 6.99999 925.27 6.99999C928.97 6.99999 931.27 6.29999 934.07 4.39999C936.17 2.99999 937.57 1.49999 937.27 0.89999C936.87 0.39999 931.37 -9.62615e-06 924.97 -9.62615e-06C914.77 -9.62615e-06 912.47 0.39999 907.27 2.59999ZM949.77 58.4C946.97 61 933.27 67.3 931.57 66.8C929.77 66.2 932.47 64.3 941.27 60C950.67 55.4 953.27 54.9 949.77 58.4ZM707.77 111.9C707.77 113.6 700.17 121 698.37 121C698.07 121 697.77 119.5 697.77 117.7C697.77 115.2 698.47 114 701.07 112.3C705.17 109.5 707.77 109.4 707.77 111.9ZM856.47 181.5C857.17 183.6 856.27 184.2 839.17 192.9C825.67 199.7 824.47 200.2 822.97 198.6C821.47 197.1 821.57 196.8 824.27 194C827.17 191.1 850.47 180.2 854.07 180.1C855.07 180 856.07 180.7 856.47 181.5ZM921.77 245C921.77 245.9 915.57 250.2 907.07 255.1C903.87 256.9 902.57 257.2 901.67 256.3C900.77 255.4 901.17 254.5 903.37 252.5C909.17 247.1 921.77 242 921.77 245ZM396.57 327.1C396.87 328.8 388.87 333 385.27 333C380.47 333 383.67 329 390.37 326.6C394.87 324.9 396.17 325.1 396.57 327.1ZM240.57 335.2C244.57 339.2 239.77 342.3 225.97 344.7C216.87 346.3 214.47 345.9 214.97 343.3C215.17 342.2 218.77 340.5 226.77 337.9C240.57 333.5 239.07 333.7 240.57 335.2ZM296.77 335.9C296.77 338.1 295.47 340 293.87 340C291.37 340 290.67 339 291.87 336.9C292.87 335 296.77 334.2 296.77 335.9ZM812.37 369.4C814.07 370.7 814.07 371 812.77 372.3C811.97 373 806.67 375.1 801.07 377C792.67 379.7 790.57 380.1 789.37 379C786.77 376.9 788.97 375 797.87 371.4C807.37 367.7 809.57 367.4 812.37 369.4ZM276.77 377.9C276.77 379.5 274.37 380.7 262.47 384.9C249.07 389.5 249.07 389.5 250.77 387.5C251.47 386.7 252.37 386 252.77 386C253.27 386 257.77 384 262.97 381.5C271.87 377.3 276.77 376 276.77 377.9ZM764.97 384.6C767.47 386.2 763.87 389.9 759.77 390C758.27 390 756.67 389.5 755.97 388.8C754.77 387.6 754.37 383.8 755.27 382.8C755.87 382.2 763.37 383.6 764.97 384.6ZM747.27 390C748.17 391.5 745.87 394 743.67 394C741.47 394 740.37 392.4 741.17 390.5C741.77 388.8 746.37 388.5 747.27 390ZM20.5697 461.7C20.1697 463.9 18.3697 463.7 17.9697 461.6C17.7697 460.6 18.2697 460 19.2697 460C20.2697 460 20.7697 460.7 20.5697 461.7ZM26.5697 461.7C26.3697 462.7 25.5697 463.5 24.7697 463.5C23.9697 463.5 23.1697 462.7 22.9697 461.7C22.7697 460.5 23.2697 460 24.7697 460C26.2697 460 26.7697 460.5 26.5697 461.7ZM23.7697 495.3C23.7697 496.7 23.3697 496.9 21.8697 496C18.6697 494.4 18.3697 493 21.1697 493.2C22.9697 493.4 23.7697 494 23.7697 495.3ZM214.77 519.4C210.67 523.3 178.77 535.2 155.47 541.5C148.17 543.5 138.87 546.1 134.77 547.4C124.67 550.6 119.97 551.5 121.27 550.1C123.77 547.5 209.87 517 214.77 517H217.27L214.77 519.4ZM461.07 536.9C462.57 537.7 463.77 538.7 463.77 539C463.77 539.3 461.97 540.5 459.87 541.7C456.27 543.8 455.77 543.8 454.37 542.4C453.47 541.6 452.77 539.3 452.77 537.4C452.77 534.2 452.97 534 455.57 534.6C457.07 535 459.47 536 461.07 536.9ZM441.77 543.5C442.27 544.9 443.17 546 443.77 546C444.27 546 444.77 546.9 444.77 548.1C444.77 549.7 442.37 551.3 433.17 555.7C423.37 560.4 420.47 561.4 414.47 561.8C408.67 562.2 407.27 562 406.17 560.6C404.07 557.7 405.57 555 409.27 555C414.77 555 420.97 552.5 429.77 546.7C434.47 543.6 438.87 541.1 439.57 541C440.27 541 441.27 542.1 441.77 543.5ZM391.57 568.8C393.67 570.2 397.77 576.2 397.17 577.2C396.87 577.7 392.27 580.1 386.97 582.6L377.27 587.2L380.17 588.5L383.07 589.7L380.67 592.2C375.27 597.6 364.27 596.4 354.77 589.5C345.67 582.8 346.27 580.2 356.97 579.3C360.47 579 364.07 578.3 365.07 577.8C366.37 577.1 367.87 577.5 370.47 579C374.07 581.1 374.17 581.1 376.67 579.2C378.37 578 379.47 575.9 379.87 573.5C380.17 571.5 381.07 569.4 381.87 568.9C383.57 567.8 389.87 567.8 391.57 568.8Z" fill="black"/>
</svg>
